<svg width="16" height="32" viewBox="0 0 16 32" fill="none" xmlns="http://www.w3.org/2000/svg">
<path d="M13.8933 32C13.7178 32.0011 13.5439 31.9674 13.3814 31.9011C13.219 31.8347 13.0712 31.737 12.9466 31.6134L2.05331 20.7201C1.43247 20.1008 0.939896 19.3651 0.60381 18.5552C0.267724 17.7452 0.0947266 16.877 0.0947266 16.0001C0.0947266 15.1232 0.267724 14.2549 0.60381 13.445C0.939896 12.635 1.43247 11.8993 2.05331 11.2801L12.9466 0.386751C13.071 0.262433 13.2185 0.163818 13.381 0.096538C13.5434 0.0292577 13.7175 -0.00537109 13.8933 -0.00537109C14.0691 -0.0053711 14.2432 0.0292577 14.4056 0.096538C14.5681 0.163818 14.7157 0.262433 14.84 0.386751C14.9643 0.511069 15.0629 0.658655 15.1302 0.821084C15.1975 0.983514 15.2321 1.1576 15.2321 1.33342C15.2321 1.50923 15.1975 1.68332 15.1302 1.84575C15.0629 2.00818 14.9643 2.15576 14.84 2.28008L3.94664 13.1734C3.19757 13.9234 2.77683 14.9401 2.77683 16.0001C2.77683 17.0601 3.19757 18.0767 3.94664 18.8267L14.84 29.72C14.9649 29.844 15.0641 29.9915 15.1318 30.1539C15.1995 30.3164 15.2344 30.4907 15.2344 30.6667C15.2344 30.8427 15.1995 31.017 15.1318 31.1795C15.0641 31.342 14.9649 31.4894 14.84 31.6134C14.7154 31.737 14.5676 31.8347 14.4052 31.9011C14.2427 31.9674 14.0688 32.0011 13.8933 32Z" fill="#827878"/>
</svg>
