<svg width="25" height="25" viewBox="0 0 25 25" fill="none" xmlns="http://www.w3.org/2000/svg">
<path d="M24.5 12.4998C24.5 5.87236 19.1274 0.499783 12.5 0.499783C5.87258 0.499783 0.5 5.87236 0.5 12.4998C0.5 18.4893 4.88823 23.4538 10.625 24.354V15.9685H7.57813V12.4998H10.625V9.85603C10.625 6.84853 12.4165 5.18728 15.1576 5.18728C16.4705 5.18728 17.8438 5.42166 17.8438 5.42166V8.37478H16.3306C14.8399 8.37478 14.375 9.29979 14.375 10.2488V12.4998H17.7031L17.1711 15.9685H14.375V24.354C20.1118 23.4538 24.5 18.4893 24.5 12.4998Z" fill="white"/>
<path d="M17.1711 15.9688L17.7031 12.5H14.375V10.249C14.375 9.30001 14.8399 8.375 16.3306 8.375H17.8438V5.42188C17.8438 5.42188 16.4705 5.1875 15.1576 5.1875C12.4165 5.1875 10.625 6.84875 10.625 9.85625V12.5H7.57812V15.9688H10.625V24.3542C11.2359 24.4501 11.8621 24.5 12.5 24.5C13.1379 24.5 13.7641 24.4501 14.375 24.3542V15.9688H17.1711Z" fill="#381E72"/>
</svg>
