<svg width="33" height="33" viewBox="0 0 33 33" fill="none" xmlns="http://www.w3.org/2000/svg">
<g clip-path="url(#clip0_3002_1847)">
<path d="M1.72811 6.72861H5.37611C5.66229 7.78158 6.28701 8.71113 7.15388 9.37385C8.02075 10.0366 9.0816 10.3956 10.1728 10.3956C11.2639 10.3956 12.3248 10.0366 13.1917 9.37385C14.0585 8.71113 14.6833 7.78158 14.9694 6.72861H31.0614C31.4151 6.72861 31.7542 6.58813 32.0043 6.33808C32.2543 6.08803 32.3948 5.74889 32.3948 5.39527C32.3948 5.04165 32.2543 4.70251 32.0043 4.45246C31.7542 4.20242 31.4151 4.06194 31.0614 4.06194H14.9694C14.6833 3.00896 14.0585 2.07941 13.1917 1.4167C12.3248 0.753983 11.2639 0.394928 10.1728 0.394928C9.0816 0.394928 8.02075 0.753983 7.15388 1.4167C6.28701 2.07941 5.66229 3.00896 5.37611 4.06194H1.72811C1.37449 4.06194 1.03535 4.20242 0.7853 4.45246C0.535251 4.70251 0.394775 5.04165 0.394775 5.39527C0.394775 5.74889 0.535251 6.08803 0.7853 6.33808C1.03535 6.58813 1.37449 6.72861 1.72811 6.72861V6.72861ZM10.1721 3.06194C10.6336 3.06194 11.0847 3.19879 11.4684 3.45518C11.8522 3.71157 12.1512 4.07598 12.3278 4.50234C12.5044 4.92871 12.5506 5.39786 12.4606 5.85048C12.3706 6.30311 12.1483 6.71887 11.822 7.04519C11.4957 7.37151 11.0799 7.59374 10.6273 7.68377C10.1747 7.7738 9.70554 7.7276 9.27918 7.55099C8.85282 7.37439 8.4884 7.07532 8.23201 6.6916C7.97562 6.30789 7.83878 5.85676 7.83878 5.39527C7.83948 4.77665 8.08554 4.18357 8.52297 3.74614C8.9604 3.3087 9.55349 3.06265 10.1721 3.06194V3.06194Z" fill="url(#paint0_linear_3002_1847)"/>
<path d="M31.0614 15.0603H27.4134C27.1277 14.0071 26.5033 13.0772 25.6365 12.4142C24.7697 11.7513 23.7087 11.392 22.6174 11.392C21.5262 11.392 20.4652 11.7513 19.5984 12.4142C18.7316 13.0772 18.1072 14.0071 17.8214 15.0603H1.72811C1.37449 15.0603 1.03535 15.2008 0.7853 15.4509C0.535251 15.7009 0.394775 16.04 0.394775 16.3937C0.394775 16.7473 0.535251 17.0864 0.7853 17.3365C1.03535 17.5865 1.37449 17.727 1.72811 17.727H17.8214C18.1072 18.7802 18.7316 19.7101 19.5984 20.3731C20.4652 21.0361 21.5262 21.3953 22.6174 21.3953C23.7087 21.3953 24.7697 21.0361 25.6365 20.3731C26.5033 19.7101 27.1277 18.7802 27.4134 17.727H31.0614C31.4151 17.727 31.7542 17.5865 32.0043 17.3365C32.2543 17.0864 32.3948 16.7473 32.3948 16.3937C32.3948 16.04 32.2543 15.7009 32.0043 15.4509C31.7542 15.2008 31.4151 15.0603 31.0614 15.0603ZM22.6174 18.727C22.156 18.727 21.7048 18.5901 21.3211 18.3338C20.9374 18.0774 20.6383 17.713 20.4617 17.2866C20.2851 16.8602 20.2389 16.3911 20.3289 15.9385C20.419 15.4858 20.6412 15.0701 20.9675 14.7438C21.2938 14.4174 21.7096 14.1952 22.1622 14.1052C22.6149 14.0151 23.084 14.0613 23.5104 14.238C23.9367 14.4146 24.3011 14.7136 24.5575 15.0973C24.8139 15.4811 24.9508 15.9322 24.9508 16.3937C24.9501 17.0123 24.704 17.6054 24.2666 18.0428C23.8291 18.4802 23.2361 18.7263 22.6174 18.727V18.727Z" fill="url(#paint1_linear_3002_1847)"/>
<path d="M31.0614 26.062H14.9694C14.6833 25.009 14.0585 24.0794 13.1917 23.4167C12.3248 22.754 11.2639 22.395 10.1728 22.395C9.0816 22.395 8.02075 22.754 7.15388 23.4167C6.28701 24.0794 5.66229 25.009 5.37611 26.062H1.72811C1.37449 26.062 1.03535 26.2024 0.7853 26.4525C0.535251 26.7025 0.394775 27.0417 0.394775 27.3953C0.394775 27.7489 0.535251 28.088 0.7853 28.3381C1.03535 28.5881 1.37449 28.7286 1.72811 28.7286H5.37611C5.66229 29.7816 6.28701 30.7111 7.15388 31.3738C8.02075 32.0366 9.0816 32.3956 10.1728 32.3956C11.2639 32.3956 12.3248 32.0366 13.1917 31.3738C14.0585 30.7111 14.6833 29.7816 14.9694 28.7286H31.0614C31.4151 28.7286 31.7542 28.5881 32.0043 28.3381C32.2543 28.088 32.3948 27.7489 32.3948 27.3953C32.3948 27.0417 32.2543 26.7025 32.0043 26.4525C31.7542 26.2024 31.4151 26.062 31.0614 26.062ZM10.1721 29.7286C9.71062 29.7286 9.25949 29.5918 8.87578 29.3354C8.49206 29.079 8.19299 28.7146 8.01639 28.2882C7.83979 27.8619 7.79358 27.3927 7.88361 26.9401C7.97364 26.4875 8.19587 26.0717 8.52219 25.7454C8.84852 25.4191 9.26428 25.1968 9.7169 25.1068C10.1695 25.0168 10.6387 25.063 11.065 25.2396C11.4914 25.4162 11.8558 25.7152 12.1122 26.099C12.3686 26.4827 12.5054 26.9338 12.5054 27.3953C12.5044 28.0138 12.2582 28.6067 11.8209 29.044C11.3835 29.4814 10.7906 29.7276 10.1721 29.7286V29.7286Z" fill="url(#paint2_linear_3002_1847)"/>
</g>
<defs>
<linearGradient id="paint0_linear_3002_1847" x1="16.3948" y1="0.394928" x2="16.3948" y2="10.3956" gradientUnits="userSpaceOnUse">
<stop stop-color="#E54A64"/>
<stop offset="1" stop-color="#FC9053"/>
</linearGradient>
<linearGradient id="paint1_linear_3002_1847" x1="16.3948" y1="11.392" x2="16.3948" y2="21.3953" gradientUnits="userSpaceOnUse">
<stop stop-color="#E54A64"/>
<stop offset="1" stop-color="#FC9053"/>
</linearGradient>
<linearGradient id="paint2_linear_3002_1847" x1="16.3948" y1="22.395" x2="16.3948" y2="32.3956" gradientUnits="userSpaceOnUse">
<stop stop-color="#E54A64"/>
<stop offset="1" stop-color="#FC9053"/>
</linearGradient>
<clipPath id="clip0_3002_1847">
<rect width="32" height="32" fill="white" transform="translate(0.394775 0.394867)"/>
</clipPath>
</defs>
</svg>
