<svg width="33" height="33" viewBox="0 0 33 33" fill="none" xmlns="http://www.w3.org/2000/svg">
<g clip-path="url(#clip0_3002_1827)">
<path d="M32.3945 13.3598V25.7278C32.3924 27.4953 31.6894 29.1897 30.4396 30.4395C29.1898 31.6893 27.4953 32.3924 25.7279 32.3945H24.3945C24.0409 32.3945 23.7018 32.254 23.4517 32.004C23.2017 31.7539 23.0612 31.4148 23.0612 31.0612C23.0612 30.7075 23.2017 30.3684 23.4517 30.1183C23.7018 29.8683 24.0409 29.7278 24.3945 29.7278H25.7279C26.7887 29.7278 27.8062 29.3064 28.5563 28.5562C29.3064 27.8061 29.7279 26.7887 29.7279 25.7278V13.3598C29.7279 12.705 29.5672 12.0603 29.2599 11.4821C28.9525 10.9039 28.508 10.4101 27.9652 10.0438L18.6319 3.74649C17.9724 3.2969 17.1927 3.05643 16.3945 3.05643C15.5964 3.05643 14.8167 3.2969 14.1572 3.74649L4.82387 10.0438C4.2811 10.4101 3.83653 10.9039 3.5292 11.4821C3.22187 12.0603 3.06117 12.705 3.0612 13.3598V25.7278C3.0612 26.7887 3.48263 27.8061 4.23278 28.5562C4.98292 29.3064 6.00034 29.7278 7.0612 29.7278H8.39454C8.74816 29.7278 9.0873 29.8683 9.33735 30.1183C9.58739 30.3684 9.72787 30.7075 9.72787 31.0612C9.72787 31.4148 9.58739 31.7539 9.33735 32.004C9.0873 32.254 8.74816 32.3945 8.39454 32.3945H7.0612C5.29374 32.3924 3.59928 31.6893 2.3495 30.4395C1.09971 29.1897 0.396654 27.4953 0.394536 25.7278V13.3598C0.39317 12.2688 0.659975 11.1941 1.17148 10.2304C1.68298 9.26669 2.42349 8.44346 3.32787 7.83315L12.6612 1.53449C13.7616 0.787758 15.0607 0.38855 16.3905 0.38855C17.7203 0.38855 19.0195 0.787758 20.1199 1.53449L29.4532 7.83315C30.3585 8.44315 31.1001 9.2661 31.613 10.2297C32.1258 11.1934 32.3942 12.2682 32.3945 13.3598ZM25.7279 20.4038C25.7313 21.6298 25.4915 22.8443 25.0223 23.977C24.5531 25.1097 23.8639 26.138 22.9945 27.0025L18.3079 31.5865C17.7948 32.0832 17.1087 32.361 16.3945 32.361C15.6804 32.361 14.9943 32.0832 14.4812 31.5865L9.8052 27.0132C8.71773 25.9291 7.91452 24.5934 7.46679 23.1246C7.01905 21.6559 6.94062 20.0993 7.23844 18.5929C7.53627 17.0866 8.20115 15.6769 9.17414 14.489C10.1471 13.3011 11.3982 12.3717 12.8164 11.783C14.2346 11.1943 15.7761 10.9646 17.3043 11.1143C18.8325 11.264 20.3002 11.7884 21.5772 12.641C22.8543 13.4937 23.9012 14.6483 24.6252 16.0024C25.3492 17.3565 25.728 18.8683 25.7279 20.4038ZM23.0612 20.4038C23.0612 19.3075 22.7909 18.2281 22.2741 17.2613C21.7573 16.2944 21.0101 15.4699 20.0986 14.8608C19.1871 14.2516 18.1394 13.8767 17.0484 13.7692C15.9573 13.6617 14.8566 13.8249 13.8438 14.2443C12.8309 14.6638 11.9371 15.3266 11.2415 16.174C10.5459 17.0214 10.0701 18.0272 9.8561 19.1025C9.64211 20.1777 9.69659 21.2891 10.0147 22.3382C10.3328 23.3874 10.9048 24.3418 11.6799 25.1172L16.3465 29.6798L21.1199 25.1065C21.738 24.4897 22.2278 23.7566 22.5611 22.9494C22.8943 22.1422 23.0643 21.2771 23.0612 20.4038ZM20.3945 20.3945C20.3945 21.1856 20.1599 21.959 19.7204 22.6168C19.2809 23.2746 18.6562 23.7873 17.9253 24.09C17.1944 24.3928 16.3901 24.472 15.6142 24.3176C14.8383 24.1633 14.1255 23.7823 13.5661 23.2229C13.0067 22.6635 12.6257 21.9508 12.4714 21.1748C12.3171 20.3989 12.3963 19.5947 12.699 18.8638C13.0018 18.1328 13.5145 17.5081 14.1723 17.0686C14.8301 16.6291 15.6034 16.3945 16.3945 16.3945C17.4554 16.3945 18.4728 16.8159 19.223 17.5661C19.9731 18.3162 20.3945 19.3336 20.3945 20.3945Z" fill="url(#paint0_linear_3002_1827)"/>
</g>
<defs>
<linearGradient id="paint0_linear_3002_1827" x1="32.2945" y1="16.3915" x2="0.294531" y2="16.3915" gradientUnits="userSpaceOnUse">
<stop stop-color="#E64D63"/>
<stop offset="1" stop-color="#F88456"/>
</linearGradient>
<clipPath id="clip0_3002_1827">
<rect width="32" height="32" fill="white" transform="translate(0.394775 0.394836)"/>
</clipPath>
</defs>
</svg>
