<svg width="16" height="11" viewBox="0 0 16 11" fill="none" xmlns="http://www.w3.org/2000/svg">
<path d="M13.9931 0.504411L5.52027 8.97659C5.4633 9.03378 5.3956 9.07916 5.32106 9.11012C5.24651 9.14108 5.16659 9.15702 5.08587 9.15702C5.00515 9.15702 4.92522 9.14108 4.85067 9.11012C4.77613 9.07916 4.70843 9.03378 4.65147 8.97659L1.37492 5.69698C1.31795 5.63979 1.25026 5.59441 1.17571 5.56344C1.10117 5.53248 1.02124 5.51654 0.94052 5.51654C0.859799 5.51654 0.779874 5.53248 0.705328 5.56344C0.630783 5.59441 0.563085 5.63979 0.50612 5.69698V5.69698C0.44893 5.75394 0.403551 5.82164 0.372587 5.89618C0.341623 5.97073 0.325684 6.05065 0.325684 6.13138C0.325684 6.2121 0.341623 6.29202 0.372587 6.36657C0.403551 6.44111 0.44893 6.50881 0.50612 6.56578L3.78389 9.84293C4.12966 10.1881 4.59824 10.3819 5.08679 10.3819C5.57533 10.3819 6.04391 10.1881 6.38968 9.84293L14.8619 1.3726C14.919 1.31564 14.9643 1.24798 14.9952 1.1735C15.0261 1.09901 15.042 1.01915 15.042 0.938504C15.042 0.857857 15.0261 0.778002 14.9952 0.703513C14.9643 0.629024 14.919 0.561365 14.8619 0.504411C14.8049 0.447221 14.7372 0.401842 14.6626 0.370878C14.5881 0.339914 14.5082 0.323975 14.4275 0.323975C14.3467 0.323975 14.2668 0.339914 14.1923 0.370878C14.1177 0.401842 14.05 0.447221 13.9931 0.504411Z" fill="url(#paint0_linear_3095_306)"/>
<defs>
<linearGradient id="paint0_linear_3095_306" x1="7.68383" y1="0.323975" x2="7.68383" y2="10.3819" gradientUnits="userSpaceOnUse">
<stop stop-color="#E54A64"/>
<stop offset="1" stop-color="#FC9053"/>
</linearGradient>
</defs>
</svg>
