<svg width="33" height="33" viewBox="0 0 33 33" fill="none" xmlns="http://www.w3.org/2000/svg">
<path d="M18.0515 11.7282C18.7487 11.7286 19.4172 11.9173 19.9102 12.2529C20.4033 12.5884 20.6805 13.0433 20.6812 13.5178C20.6812 13.6725 20.7715 13.8209 20.9323 13.9303C21.093 14.0397 21.311 14.1012 21.5384 14.1012C21.7657 14.1012 21.9837 14.0397 22.1445 13.9303C22.3052 13.8209 22.3955 13.6725 22.3955 13.5178V13.4782C22.3955 13.4671 22.3955 13.4572 22.3955 13.4461C22.3669 12.6748 21.8968 11.9415 21.0853 11.4027C20.2739 10.8639 19.1852 10.562 18.0515 10.5615H17.2527V9.97817C17.2527 9.82346 17.1623 9.67509 17.0016 9.56569C16.8409 9.45629 16.6228 9.39484 16.3955 9.39484C16.1682 9.39484 15.9502 9.45629 15.7894 9.56569C15.6287 9.67509 15.5384 9.82346 15.5384 9.97817V10.5615H14.7395C13.7086 10.5623 12.7118 10.8125 11.927 11.2674C11.1423 11.7224 10.6209 12.3525 10.4561 13.045C10.2912 13.7375 10.4936 14.4474 11.027 15.0477C11.5605 15.648 12.3903 16.0997 13.3681 16.3219L15.5384 16.8148V21.0615H14.7395C14.0423 21.061 13.3738 20.8723 12.8808 20.5368C12.3878 20.2013 12.1105 19.7463 12.1098 19.2718C12.1098 19.1171 12.0195 18.9688 11.8587 18.8594C11.698 18.75 11.48 18.6885 11.2527 18.6885C11.0253 18.6885 10.8073 18.75 10.6466 18.8594C10.4858 18.9688 10.3955 19.1171 10.3955 19.2718V19.3115C10.3955 19.3226 10.3955 19.3325 10.3955 19.3436C10.4241 20.1149 10.8942 20.8481 11.7057 21.387C12.5172 21.9258 13.6058 22.2277 14.7395 22.2282H15.5384V22.8115C15.5384 22.9662 15.6287 23.1146 15.7894 23.224C15.9502 23.3334 16.1682 23.3948 16.3955 23.3948C16.6228 23.3948 16.8409 23.3334 17.0016 23.224C17.1623 23.1146 17.2527 22.9662 17.2527 22.8115V22.2282H18.0515C19.0824 22.2274 20.0793 21.9772 20.864 21.5222C21.6487 21.0673 22.1701 20.4372 22.3349 19.7447C22.4998 19.0521 22.2974 18.3423 21.764 17.742C21.2305 17.1416 20.4007 16.69 19.4229 16.4678L17.2527 15.9748V11.7282H18.0515ZM18.8829 17.5738C19.4756 17.708 19.9787 17.9814 20.3021 18.3451C20.6256 18.7087 20.7483 19.1388 20.6483 19.5584C20.5482 19.978 20.232 20.3597 19.7562 20.6351C19.2804 20.9105 18.6761 21.0617 18.0515 21.0615H17.2527V17.2039L18.8829 17.5738ZM15.5384 15.5858L13.9098 15.2159C13.3173 15.0817 12.8143 14.8084 12.4908 14.4449C12.1674 14.0813 12.0445 13.6513 12.1443 13.2318C12.2441 12.8123 12.5601 12.4306 13.0355 12.1551C13.511 11.8796 14.115 11.7283 14.7395 11.7282H15.5384V15.5858Z" fill="url(#paint0_linear_3002_1836)"/>
<g clip-path="url(#clip0_3002_1836)">
<path d="M16.3954 3.06144C18.164 3.06725 19.914 3.42376 21.544 4.11036C23.174 4.79696 24.6516 5.8 25.8914 7.06144H21.7287C21.3751 7.06144 21.0359 7.20192 20.7859 7.45197C20.5358 7.70202 20.3954 8.04116 20.3954 8.39478C20.3954 8.7484 20.5358 9.08754 20.7859 9.33759C21.0359 9.58764 21.3751 9.72811 21.7287 9.72811H27.2527C27.9093 9.72776 28.5388 9.46678 29.0031 9.00252C29.4674 8.53825 29.7283 7.90868 29.7287 7.25211V1.72811C29.7287 1.37449 29.5882 1.03535 29.3382 0.785301C29.0881 0.535253 28.749 0.394777 28.3954 0.394777C28.0417 0.394777 27.7026 0.535253 27.4526 0.785301C27.2025 1.03535 27.062 1.37449 27.062 1.72811V4.49878C24.8583 2.51405 22.1455 1.18199 19.2275 0.651776C16.3095 0.121562 13.3015 0.414126 10.5404 1.49671C7.7793 2.57929 5.37406 4.40914 3.59405 6.78134C1.81405 9.15355 0.72956 11.9744 0.462038 14.9281C0.444815 15.1138 0.466459 15.301 0.525588 15.4779C0.584718 15.6547 0.680037 15.8173 0.805473 15.9553C0.930908 16.0933 1.08371 16.2036 1.25414 16.2793C1.42457 16.3549 1.6089 16.3943 1.79537 16.3948C2.12149 16.3989 2.43742 16.2812 2.68132 16.0647C2.92521 15.8482 3.07952 15.5484 3.11404 15.2241C3.41086 11.9051 4.938 8.81705 7.39548 6.56656C9.85295 4.31607 13.0631 3.06583 16.3954 3.06144Z" fill="url(#paint1_linear_3002_1836)"/>
<path d="M30.9964 16.3951C30.6703 16.391 30.3544 16.5087 30.1105 16.7252C29.8666 16.9417 29.7123 17.2415 29.6778 17.5658C29.4574 20.1034 28.5137 22.5246 26.9586 24.5421C25.4036 26.5595 23.3025 28.0886 20.9046 28.9479C18.5067 29.8072 15.9127 29.9606 13.4302 29.39C10.9478 28.8193 8.68109 27.5486 6.8991 25.7285H11.0618C11.4154 25.7285 11.7545 25.588 12.0046 25.338C12.2546 25.0879 12.3951 24.7488 12.3951 24.3951C12.3951 24.0415 12.2546 23.7024 12.0046 23.4523C11.7545 23.2023 11.4154 23.0618 11.0618 23.0618H5.53777C5.21257 23.0616 4.89052 23.1256 4.59004 23.2499C4.28956 23.3743 4.01653 23.5567 3.78658 23.7866C3.55663 24.0166 3.37425 24.2896 3.24989 24.5901C3.12552 24.8906 3.06159 25.2126 3.06177 25.5378V31.0618C3.06177 31.4155 3.20224 31.7546 3.45229 32.0046C3.70234 32.2547 4.04148 32.3952 4.3951 32.3952C4.74872 32.3952 5.08786 32.2547 5.33791 32.0046C5.58796 31.7546 5.72843 31.4155 5.72843 31.0618V28.2912C7.93221 30.2759 10.645 31.608 13.563 32.1382C16.481 32.6684 19.4889 32.3758 22.2501 31.2932C25.0112 30.2106 27.4164 28.3808 29.1964 26.0086C30.9764 23.6364 32.0609 20.8155 32.3284 17.8618C32.3457 17.6761 32.324 17.4889 32.2649 17.312C32.2058 17.1352 32.1104 16.9726 31.985 16.8346C31.8596 16.6966 31.7068 16.5863 31.5363 16.5106C31.3659 16.435 31.1816 16.3956 30.9951 16.3951H30.9964Z" fill="url(#paint2_linear_3002_1836)"/>
</g>
<defs>
<linearGradient id="paint0_linear_3002_1836" x1="16.3955" y1="9.39484" x2="16.3955" y2="23.3948" gradientUnits="userSpaceOnUse">
<stop stop-color="#E54A64"/>
<stop offset="1" stop-color="#FC9053"/>
</linearGradient>
<linearGradient id="paint1_linear_3002_1836" x1="15.0925" y1="0.394409" x2="15.0925" y2="16.3949" gradientUnits="userSpaceOnUse">
<stop stop-color="#E54A64"/>
<stop offset="1" stop-color="#FC9053"/>
</linearGradient>
<linearGradient id="paint2_linear_3002_1836" x1="17.698" y1="16.395" x2="17.698" y2="32.3955" gradientUnits="userSpaceOnUse">
<stop stop-color="#E54A64"/>
<stop offset="1" stop-color="#FC9053"/>
</linearGradient>
<clipPath id="clip0_3002_1836">
<rect width="32" height="32" fill="white" transform="translate(0.39502 0.394836)"/>
</clipPath>
</defs>
</svg>
