<svg width="33" height="33" viewBox="0 0 33 33" fill="none" xmlns="http://www.w3.org/2000/svg">
<g clip-path="url(#clip0_3002_1856)">
<path d="M32.0209 30.1285L24.0737 22.1813C28.7356 16.4796 27.8927 8.07823 22.1911 3.41636C16.4894 -1.24552 8.08806 -0.402767 3.42612 5.29892C-1.23581 11.0006 -0.392938 19.402 5.30875 24.0639C10.2199 28.0795 17.28 28.0795 22.1911 24.0639L30.1383 32.0111C30.6672 32.5219 31.5101 32.5073 32.0209 31.9784C32.5192 31.4624 32.5192 30.6444 32.0209 30.1285ZM3.11987 13.7614C3.11987 7.87886 7.88862 3.11011 13.7712 3.11011C19.6537 3.11011 24.4225 7.87886 24.4225 13.7614C24.4225 19.644 19.6537 24.4127 13.7712 24.4127C7.89137 24.4061 3.1265 19.6412 3.11987 13.7614ZM16.4341 8.43573C15.4394 8.44023 14.4851 8.82955 13.7712 9.52217C13.0574 8.82961 12.1031 8.44023 11.1084 8.43573C8.83137 8.51461 7.04612 10.4189 7.11419 12.6962C7.11419 15.359 9.83162 18.1058 12.1123 19.9391C13.0831 20.7123 14.4594 20.7123 15.4302 19.9391C17.7109 18.1057 20.4283 15.359 20.4283 12.6962C20.4963 10.4189 18.7111 8.51461 16.4341 8.43573ZM13.7792 17.8622C11.3107 15.8784 9.77694 13.8945 9.77694 12.6963C9.7105 11.8897 10.3029 11.1787 11.1084 11.0986C11.9137 11.1787 12.5062 11.8897 12.4398 12.6963C12.4398 13.4316 13.0359 14.0277 13.7712 14.0277C14.5066 14.0277 15.1027 13.4317 15.1027 12.6963C15.0362 11.8897 15.6287 11.1787 16.4341 11.0986C17.2395 11.1787 17.832 11.8897 17.7656 12.6963C17.7654 13.8945 16.2317 15.8784 13.7792 17.8622Z" fill="url(#paint0_linear_3002_1856)"/>
</g>
<defs>
<linearGradient id="paint0_linear_3002_1856" x1="32.2947" y1="16.3946" x2="0.314123" y2="16.3946" gradientUnits="userSpaceOnUse">
<stop stop-color="#E64D63"/>
<stop offset="1" stop-color="#F88456"/>
</linearGradient>
<clipPath id="clip0_3002_1856">
<rect width="32" height="32" fill="white" transform="translate(0.394775 0.394836)"/>
</clipPath>
</defs>
</svg>
