<svg width="33" height="33" viewBox="0 0 33 33" fill="none" xmlns="http://www.w3.org/2000/svg">
<g clip-path="url(#clip0_3002_1815)">
<path d="M32.1761 12.1206C31.9034 11.2524 31.3585 10.4951 30.6221 9.96062C29.8856 9.42612 28.9967 9.1428 28.0868 9.15258H22.2615L20.4921 3.63791C20.2139 2.76985 19.6671 2.0126 18.9307 1.47533C18.1943 0.938066 17.3063 0.64856 16.3948 0.64856C15.4832 0.64856 14.5952 0.938066 13.8588 1.47533C13.1224 2.0126 12.5757 2.76985 12.2975 3.63791L10.5281 9.15258H4.70279C3.79578 9.15387 2.91238 9.44176 2.17876 9.97512C1.44515 10.5085 0.898843 11.26 0.617884 12.1224C0.336925 12.9848 0.335681 13.914 0.614331 14.7771C0.89298 15.6402 1.43727 16.3933 2.16945 16.9286L6.91079 20.3952L5.10812 25.9779C4.8168 26.8438 4.81311 27.7806 5.0976 28.6487C5.38209 29.5168 5.93952 30.2697 6.68679 30.7952C7.42126 31.3376 8.31131 31.6282 9.22433 31.6236C10.1373 31.619 11.0244 31.3196 11.7535 30.7699L16.3948 27.3539L21.0375 30.7659C21.7706 31.3052 22.6558 31.5981 23.5659 31.6025C24.476 31.607 25.3641 31.3227 26.1025 30.7906C26.8408 30.2585 27.3915 29.506 27.6752 28.6412C27.9589 27.7765 27.9611 26.844 27.6815 25.9779L25.8788 20.3952L30.6255 16.9286C31.366 16.4 31.9167 15.647 32.196 14.781C32.4752 13.9151 32.4683 12.9823 32.1761 12.1206ZM29.0521 14.7752L23.5268 18.8139C23.2998 18.9795 23.131 19.2125 23.0443 19.4797C22.9576 19.7469 22.9576 20.0347 23.0441 20.3019L25.1441 26.7952C25.2504 27.1246 25.2495 27.4791 25.1415 27.8079C25.0336 28.1367 24.8242 28.4228 24.5434 28.6251C24.2626 28.8273 23.9249 28.9354 23.5788 28.9336C23.2328 28.9318 22.8962 28.8204 22.6175 28.6152L17.1841 24.6152C16.9553 24.4471 16.6787 24.3565 16.3948 24.3565C16.1108 24.3565 15.8343 24.4471 15.6055 24.6152L10.1721 28.6152C9.89357 28.8231 9.55604 28.9369 9.20848 28.9401C8.86091 28.9432 8.52138 28.8356 8.23909 28.6328C7.95681 28.43 7.74645 28.1426 7.63852 27.8122C7.53058 27.4818 7.53068 27.1256 7.63879 26.7952L9.74545 20.3019C9.83201 20.0347 9.83195 19.7469 9.74527 19.4797C9.6586 19.2125 9.48974 18.9795 9.26279 18.8139L3.73746 14.7752C3.45919 14.5715 3.25243 14.285 3.14671 13.9568C3.04099 13.6285 3.04171 13.2752 3.14877 12.9474C3.25583 12.6195 3.46375 12.3339 3.74284 12.1313C4.02193 11.9287 4.35791 11.8195 4.70279 11.8192H11.5028C11.7851 11.8192 12.0601 11.7296 12.2882 11.5633C12.5163 11.3971 12.6857 11.1627 12.7721 10.8939L14.8388 4.45258C14.9449 4.12296 15.1528 3.8355 15.4327 3.63158C15.7125 3.42765 16.0499 3.31778 16.3961 3.31778C16.7424 3.31778 17.0797 3.42765 17.3596 3.63158C17.6394 3.8355 17.8474 4.12296 17.9535 4.45258L20.0201 10.8939C20.1065 11.1627 20.2759 11.3971 20.5041 11.5633C20.7322 11.7296 21.0072 11.8192 21.2895 11.8192H28.0895C28.4343 11.8195 28.7703 11.9287 29.0494 12.1313C29.3285 12.3339 29.5364 12.6195 29.6435 12.9474C29.7505 13.2752 29.7513 13.6285 29.6455 13.9568C29.5398 14.285 29.3331 14.5715 29.0548 14.7752H29.0521Z" fill="url(#paint0_linear_3002_1815)"/>
</g>
<defs>
<linearGradient id="paint0_linear_3002_1815" x1="32.3005" y1="16.1361" x2="0.306268" y2="16.1361" gradientUnits="userSpaceOnUse">
<stop stop-color="#E64D63"/>
<stop offset="1" stop-color="#F88456"/>
</linearGradient>
<clipPath id="clip0_3002_1815">
<rect width="32" height="32" fill="white" transform="translate(0.39502 0.394836)"/>
</clipPath>
</defs>
</svg>
